<svg width="40" height="41" viewBox="0 0 40 41" fill="none" xmlns="http://www.w3.org/2000/svg">
<path d="M19.4904 8C12.0225 8 6 12.8179 6 18.667C6 22.4635 8.50535 25.7879 12.2634 27.6862L10.9914 32.4368C10.9675 32.508 10.9638 32.5844 10.9808 32.6576C10.9978 32.7308 11.0349 32.7978 11.0878 32.8511C11.165 32.9192 11.2643 32.9568 11.3672 32.9571C11.4526 32.9502 11.5335 32.9165 11.5985 32.8607L17.0717 29.1702C17.8797 29.2817 18.6941 29.3396 19.5096 29.3436C26.9679 29.3436 33 24.5256 33 18.667C33 12.8083 26.9486 8 19.4904 8Z" fill="#392020"/>
<path d="M10.7211 16.9802H9.24676C9.06402 16.9855 8.88355 16.9387 8.72641 16.8453C8.65665 16.8016 8.59667 16.7439 8.55024 16.6759C8.50381 16.6079 8.47193 16.5311 8.45661 16.4502C8.45192 16.3989 8.45192 16.3474 8.45661 16.2961C8.45203 16.2002 8.47065 16.1044 8.51091 16.0172C8.55117 15.93 8.61187 15.8538 8.68787 15.795C8.85586 15.6734 9.05862 15.6091 9.26602 15.6119H13.7082C13.8924 15.6054 14.0741 15.6559 14.2286 15.7564C14.3 15.7982 14.3612 15.8554 14.4079 15.9237C14.4545 15.992 14.4854 16.0698 14.4984 16.1516C14.5031 16.1996 14.5031 16.2481 14.4984 16.2961C14.5029 16.3935 14.4843 16.4905 14.4441 16.5792C14.4039 16.668 14.3433 16.7459 14.2671 16.8067C14.1032 16.9282 13.9024 16.9896 13.6986 16.9802H12.2725V22.0488C12.2782 22.1567 12.2615 22.2647 12.2234 22.3659C12.1852 22.4671 12.1265 22.5593 12.0508 22.6365C11.9783 22.7104 11.8911 22.7683 11.7948 22.8065C11.6986 22.8447 11.5954 22.8623 11.4919 22.8582C11.311 22.8633 11.1338 22.8055 10.9909 22.6944C10.8548 22.5859 10.7624 22.4319 10.7307 22.2607C10.7212 22.1904 10.7212 22.1191 10.7307 22.0488L10.7211 16.9802Z" fill="#FEE500"/>
<path d="M14.924 15.9883C14.9663 15.8297 15.0659 15.6924 15.2034 15.6028C15.3499 15.5198 15.5169 15.4797 15.6852 15.4872H16.0514C16.2299 15.4808 16.4067 15.5242 16.5621 15.6125C16.7267 15.7232 16.8436 15.8917 16.8897 16.0846L18.8169 21.529C18.8669 21.671 18.9087 21.8159 18.9422 21.9627C18.9455 22.0237 18.9455 22.0847 18.9422 22.1457C18.9454 22.2396 18.9281 22.3331 18.8915 22.4197C18.8549 22.5062 18.7998 22.5837 18.7302 22.6468C18.6627 22.716 18.5816 22.7705 18.4921 22.807C18.4026 22.8435 18.3065 22.8611 18.2098 22.8588C18.0612 22.8735 17.9119 22.8379 17.7861 22.7575C17.6602 22.6771 17.5651 22.5566 17.516 22.4155L17.1113 21.2303H14.5771L14.1724 22.4155C14.1245 22.5594 14.0282 22.6822 13.8999 22.763C13.7717 22.8438 13.6194 22.8777 13.4689 22.8588C13.306 22.863 13.1464 22.8121 13.016 22.7142C12.889 22.6132 12.8034 22.4693 12.7751 22.3096C12.77 22.2551 12.77 22.2002 12.7751 22.1457C12.7586 22.0501 12.7586 21.9524 12.7751 21.8567C12.7751 21.7507 12.8426 21.635 12.8811 21.529L14.924 15.9883ZM15.8876 17.2507L14.9721 20.1415H16.7933L15.8876 17.2507Z" fill="#FEE500"/>
<path d="M19.1633 16.2966C19.1535 16.0804 19.2297 15.8691 19.3752 15.7089C19.4492 15.6342 19.5381 15.5759 19.636 15.5377C19.7339 15.4995 19.8388 15.4823 19.9438 15.4871C20.1243 15.485 20.3004 15.5427 20.4448 15.651C20.5787 15.764 20.6676 15.9212 20.6954 16.0942C20.7049 16.1613 20.7049 16.2295 20.6954 16.2966V21.3652H23.3453C23.5289 21.3628 23.7095 21.4128 23.8656 21.5096C23.9358 21.5529 23.996 21.6105 24.0425 21.6785C24.089 21.7466 24.1207 21.8236 24.1354 21.9047C24.1354 21.9047 24.1354 22.0011 24.1354 22.0493C24.14 22.1452 24.1214 22.2408 24.0811 22.3281C24.0408 22.4153 23.9801 22.4916 23.9042 22.5504C23.7362 22.672 23.5334 22.7362 23.326 22.7334H20.069C19.8616 22.7468 19.6554 22.6928 19.4812 22.5793C19.3254 22.4628 19.2216 22.2898 19.1922 22.0975C19.1851 21.9916 19.1851 21.8853 19.1922 21.7795L19.1633 16.2966Z" fill="#FEE500"/>
<path d="M24.3092 16.2979C24.3034 16.0823 24.3791 15.8724 24.5211 15.7101C24.6656 15.5789 24.8508 15.5014 25.0457 15.4909C25.2405 15.4803 25.433 15.5374 25.5907 15.6523C25.7275 15.7643 25.8198 15.9214 25.8509 16.0955C25.8557 16.1628 25.8557 16.2305 25.8509 16.2979V18.6587L28.2888 15.8449C28.3827 15.7489 28.4825 15.6589 28.5875 15.5752C28.6865 15.5163 28.8 15.4861 28.9152 15.4884C29.0836 15.4875 29.2483 15.5379 29.3873 15.633C29.4528 15.6771 29.5088 15.734 29.5518 15.8002C29.5949 15.8665 29.6241 15.9406 29.6379 16.0184C29.6417 16.0375 29.6417 16.0572 29.6379 16.0763C29.6332 16.0985 29.6332 16.1215 29.6379 16.1437C29.6375 16.2451 29.611 16.3447 29.5608 16.4328C29.5096 16.5261 29.4482 16.6133 29.3777 16.6929L27.7781 18.4467L29.7053 21.4338V21.5302C29.8054 21.6683 29.8834 21.8211 29.9366 21.9832V22.0313C29.9477 22.1429 29.9316 22.2556 29.8897 22.3597C29.8477 22.4637 29.7811 22.556 29.6957 22.6287C29.5349 22.7502 29.3383 22.8147 29.1368 22.8118C29.0029 22.8174 28.87 22.7874 28.7513 22.725C28.623 22.639 28.5172 22.5233 28.443 22.3878L26.6507 19.497L25.7931 20.3932V22.0023C25.7989 22.2179 25.7232 22.4278 25.5811 22.5901C25.505 22.6645 25.4144 22.7227 25.3149 22.7608C25.2155 22.7989 25.1093 22.8163 25.0029 22.8118C24.8251 22.8156 24.6515 22.7576 24.5115 22.648C24.3754 22.5395 24.283 22.3856 24.2513 22.2144C24.2418 22.1441 24.2418 22.0727 24.2513 22.0023L24.3092 16.2979Z" fill="#FEE500"/>
</svg>
